<svg xmlns="http://www.w3.org/2000/svg" width="80" height="80" viewBox="0 0 80 80"><g transform="translate(-713 -854)"><circle cx="40" cy="40" r="40" transform="translate(713 854)" fill="#e1f3f8"/><path d="M40,1A39.011,39.011,0,0,0,24.82,75.936,39.01,39.01,0,0,0,55.18,4.064,38.755,38.755,0,0,0,40,1m0-1A40,40,0,1,1,0,40,40,40,0,0,1,40,0Z" transform="translate(713 854)" fill="rgba(112,112,112,0.31)"/><path d="M6.488,2.37c3.228-.646,7.474-.731,10.376,2.168a1.009,1.009,0,0,1,.3.714V27.458a1.009,1.009,0,0,1-1.723.714c-1.7-1.7-4.27-2.138-7.005-1.857a21.671,21.671,0,0,0-6.968,2.045A1.009,1.009,0,0,1,0,27.458V5.252a1.009,1.009,0,0,1,.557-.9l.452.9-.452-.9,0,0,.008,0L.6,4.332q.219-.109.444-.208A26.157,26.157,0,0,1,6.49,2.37ZM2.019,5.9v20a23.369,23.369,0,0,1,6.2-1.591,11.715,11.715,0,0,1,6.916,1.13V5.692c-2.146-1.875-5.311-1.93-8.257-1.34A24.138,24.138,0,0,0,2.019,5.9Z" transform="translate(736.851 878.766)" fill="#005ea2" fill-rule="evenodd"/><path d="M27.545,2.37c-3.225-.646-7.473-.731-10.376,2.168a1.009,1.009,0,0,0-.294.714V27.458a1.009,1.009,0,0,0,1.723.714c1.7-1.7,4.27-2.138,7.005-1.857a21.671,21.671,0,0,1,6.968,2.045,1.009,1.009,0,0,0,1.462-.9V5.252a1.009,1.009,0,0,0-.557-.9l-.452.9.452-.9,0,0-.008,0-.026-.012-.1-.047q-.794-.371-1.613-.686A26.162,26.162,0,0,0,27.545,2.37ZM32.015,5.9v20a23.369,23.369,0,0,0-6.2-1.591,11.715,11.715,0,0,0-6.916,1.13V5.692c2.146-1.875,5.311-1.93,8.257-1.34A24.135,24.135,0,0,1,32.015,5.9Z" transform="translate(735.116 878.766)" fill="#005ea2" fill-rule="evenodd"/></g></svg>