<svg xmlns="http://www.w3.org/2000/svg" width="80" height="80" viewBox="0 0 80 80"><g transform="translate(-1331 -1390)"><circle cx="40" cy="40" r="40" transform="translate(1331 1390)" fill="#e1f3f8"/><path d="M40,1A39.011,39.011,0,0,0,24.82,75.936,39.01,39.01,0,0,0,55.18,4.064,38.755,38.755,0,0,0,40,1m0-1A40,40,0,1,1,0,40,40,40,0,0,1,40,0Z" transform="translate(1331 1390)" fill="rgba(112,112,112,0.31)"/><path d="M18.934,19.347A5.874,5.874,0,1,0,13,13.413,5.943,5.943,0,0,0,18.934,19.347Zm-.121-9.325h0a3.514,3.514,0,0,1,3.512,3.512,3.452,3.452,0,0,1-6.9,0,3.491,3.491,0,0,1,3.391-3.512Z" transform="translate(1351.944 1409.679)" fill="#005ea2"/><path d="M34.536,17.229A11.99,11.99,0,0,0,26.059,14.2H25.09A8.074,8.074,0,0,1,24,16.745a11.749,11.749,0,0,1,2.059-.121,10.072,10.072,0,0,1,6.418,1.938V27.28H34.9V17.592l-.363-.363Z" transform="translate(1354.266 1411.07)" fill="#005ea2"/><path d="M23.7,8.538a2.958,2.958,0,0,1,5.449,2.3,3.023,3.023,0,0,1-2.664,1.816,2.061,2.061,0,0,1-.848-.121,8.579,8.579,0,0,1,.121,1.7v.727c.242,0,.484.121.727.121A5.391,5.391,0,1,0,26.6,4.3,5.193,5.193,0,0,0,22,6.964,5.17,5.17,0,0,1,23.7,8.538Z" transform="translate(1353.844 1408.983)" fill="#005ea2"/><path d="M13.9,16.845A8.074,8.074,0,0,1,12.81,14.3h-.97a12.46,12.46,0,0,0-8.477,2.906L3,17.571v9.688H5.422V18.54A10.294,10.294,0,0,1,11.84,16.6a10.665,10.665,0,0,1,2.06.245Z" transform="translate(1349.834 1411.091)" fill="#005ea2"/><path d="M11.24,14.968a1.536,1.536,0,0,0,.727-.121V14.12a7.447,7.447,0,0,1,.121-1.7,2.061,2.061,0,0,1-.848.121,2.906,2.906,0,0,1,0-5.813A3.06,3.06,0,0,1,14.025,8.55a12.056,12.056,0,0,1,1.816-1.7,5.379,5.379,0,1,0-4.6,8.114Z" transform="translate(1350.435 1408.971)" fill="#005ea2"/><path d="M29.5,23.482l-.242-.363A12.222,12.222,0,0,0,19.809,19a12.475,12.475,0,0,0-9.567,4.117L10,23.482v9.2a2.041,2.041,0,0,0,2.059,2.059h15.5a2.122,2.122,0,0,0,2.059-2.059v-9.2Zm-2.422,8.84H12.422V24.329a10.335,10.335,0,0,1,7.387-2.906,9.767,9.767,0,0,1,7.266,2.906Z" transform="translate(1351.312 1412.083)" fill="#005ea2"/></g></svg>