<svg xmlns="http://www.w3.org/2000/svg" width="80" height="80" viewBox="0 0 80 80"><g transform="translate(-1439 -1392)"><circle cx="40" cy="40" r="40" transform="translate(1439 1392)" fill="#e1f3f8"/><path d="M40,1A39.011,39.011,0,0,0,24.82,75.936,39.01,39.01,0,0,0,55.18,4.064,38.755,38.755,0,0,0,40,1m0-1A40,40,0,1,1,0,40,40,40,0,0,1,40,0Z" transform="translate(1439 1392)" fill="rgba(112,112,112,0.31)"/><path d="M17.421,1.01,1.125,8.856v4.082h33.75v-4.1Zm15.2,9.678H3.375V10.27L17.454,3.491l15.171,6.8Z" transform="translate(1461 1414.057)" fill="#005ea2"/><path d="M1.125,34.875h33.75V27.563H1.125Zm2.25-5.063h29.25v2.813H3.375Z" transform="translate(1461 1414.057)" fill="#005ea2"/><path d="M5.063,14.625h2.25v11.25H5.063Z" transform="translate(1461 1414.057)" fill="#005ea2"/><path d="M28.688,14.625h2.25v11.25h-2.25Z" transform="translate(1461 1414.057)" fill="#005ea2"/><path d="M12.938,14.625h2.25v11.25h-2.25Z" transform="translate(1461 1414.057)" fill="#005ea2"/><path d="M20.813,14.625h2.25v11.25h-2.25Z" transform="translate(1461 1414.057)" fill="#005ea2"/></g></svg>