<svg xmlns="http://www.w3.org/2000/svg" width="80" height="80" viewBox="0 0 80 80"><g transform="translate(-1536 -1390)"><circle cx="40" cy="40" r="40" transform="translate(1536 1390)" fill="#e1f3f8"/><path d="M40,1A39.011,39.011,0,0,0,24.82,75.936,39.01,39.01,0,0,0,55.18,4.064,38.755,38.755,0,0,0,40,1m0-1A40,40,0,1,1,0,40,40,40,0,0,1,40,0Z" transform="translate(1536 1390)" fill="rgba(112,112,112,0.31)"/><g transform="translate(1558 1412)"><path d="M18,1.125A10.125,10.125,0,1,1,7.875,11.25,10.136,10.136,0,0,1,18,1.125Zm0,18a7.875,7.875,0,1,0-7.875-7.875A7.884,7.884,0,0,0,18,19.125Z" fill="#005ea2"/><path d="M13.5,34.875a1.125,1.125,0,0,1-.966-.549L9.488,29.219l-6.107.031a1.125,1.125,0,0,1-.989-1.671L9.117,15.473a1.125,1.125,0,1,1,1.967,1.093L5.292,26.991l4.184-.021a2.259,2.259,0,0,1,1.943,1.1l1.946,3.262,5.322-11.706a1.125,1.125,0,1,1,2.048.931L14.524,34.216a1.125,1.125,0,0,1-.962.658Z" fill="#005ea2"/><path d="M22.5,34.875l-.063,0a1.125,1.125,0,0,1-.962-.658l-4.5-9.9a1.125,1.125,0,0,1,2.048-.931l3.611,7.943,1.945-3.261a2.26,2.26,0,0,1,1.944-1.1l4.187.021L24.788,16.3a1.125,1.125,0,1,1,1.968-1.09L33.609,27.58a1.125,1.125,0,0,1-.99,1.67l-6.107-.03-3.046,5.106A1.125,1.125,0,0,1,22.5,34.875Z" fill="#005ea2"/><path d="M18,5.625a5.625,5.625,0,1,1-5.625,5.625A5.631,5.631,0,0,1,18,5.625Zm0,9a3.375,3.375,0,1,0-3.375-3.375A3.379,3.379,0,0,0,18,14.625Z" fill="#005ea2"/></g></g></svg>