<svg xmlns="http://www.w3.org/2000/svg" width="355.43" height="209.05" viewBox="0 0 355.43 209.05"><g id="Layer_2" data-name="Layer 2"><g id="Layer_1-2" data-name="Layer 1"><polygon points="174.83 120.37 175.05 120.37 175.05 119.22 174.83 120.37" fill="#231f20"/><polygon points="40.64 0 0 209.05 47.97 209.05 65.21 120.37 126.86 120.37 136.01 73.28 74.36 73.28 79.45 47.09 144.32 47.09 153.47 0 40.64 0" fill="#003a5d"/><path d="M165.59,165.8h79.73l8.21,43.25h47.93L280.8,100.21a249.94,249.94,0,0,0-44.06,10.1c-64.94,21.1-110.43,63.56-108.27,98.74h9.77ZM276.37,76.92,261.77,0h-47.1V0L162.91,81.92h-.15v.24l-22.58,35.71a283.89,283.89,0,0,1,59.74-27.14c26.62-8.64,52.77-13.12,76.45-13.81" fill="#003a5d"/><path d="M308.34,98.34V209.05h47.09V106.18c-13-5.12-29.1-7.8-47.09-7.84" fill="#003a5d"/><path d="M355.43,95.29V0H308.34V78.49c19.1,2.62,35.3,8.31,47.09,16.8" fill="#003a5d"/><rect width="355.43" height="209.05" fill="none"/></g></g></svg>