<svg xmlns="http://www.w3.org/2000/svg" width="80" height="80" viewBox="0 0 80 80"><g transform="translate(-1619 -1260)"><g transform="translate(-176 29)"><g transform="translate(45 9)"><circle cx="40" cy="40" r="40" transform="translate(1750 1222)" fill="#e1f3f8"/><path d="M40,1A39.011,39.011,0,0,0,24.82,75.936,39.01,39.01,0,0,0,55.18,4.064,38.755,38.755,0,0,0,40,1m0-1A40,40,0,1,1,0,40,40,40,0,0,1,40,0Z" transform="translate(1750 1222)" fill="rgba(112,112,112,0.31)"/></g></g><g transform="translate(1639.68 1282.052)"><path d="M0,29.115a3.623,3.623,0,0,0,3.623,3.623h31.4a3.623,3.623,0,0,0,3.623-3.623V14.625H36.225v14.49a1.208,1.208,0,0,1-1.208,1.208H3.623a1.208,1.208,0,0,1-1.208-1.208V14.625H0Z" transform="translate(0 0.908)" fill="#005ea2" fill-rule="evenodd"/><path d="M0,10.7A3.623,3.623,0,0,1,3.623,7.08h31.4A3.623,3.623,0,0,1,38.64,10.7V16.46l-18.387,4.9a3.623,3.623,0,0,1-1.864,0L0,16.46ZM3.623,9.5A1.208,1.208,0,0,0,2.415,10.7v3.9L19.009,19.03a1.207,1.207,0,0,0,.624,0l16.593-4.424V10.7A1.208,1.208,0,0,0,35.018,9.5Zm8.453-3.623A3.623,3.623,0,0,1,15.7,2.25h7.245a3.623,3.623,0,0,1,3.623,3.623V7.08H24.15V5.873a1.208,1.208,0,0,0-1.208-1.208H15.7A1.208,1.208,0,0,0,14.49,5.873V7.08H12.075Z" transform="translate(0 0)" fill="#005ea2" fill-rule="evenodd"/></g></g></svg>