<svg xmlns="http://www.w3.org/2000/svg" width="80" height="80" viewBox="0 0 80 80"><g transform="translate(-1275 -854)"><g transform="translate(1275 853.969)"><circle cx="40" cy="40" r="40" transform="translate(0 0.031)" fill="#e1f3f8"/><path d="M40,1A39.011,39.011,0,0,0,24.82,75.936,39.01,39.01,0,0,0,55.18,4.064,38.755,38.755,0,0,0,40,1m0-1A40,40,0,1,1,0,40,40,40,0,0,1,40,0Z" transform="translate(0 0.031)" fill="rgba(112,112,112,0.31)"/></g><g transform="translate(1299.291 876.047)"><path d="M8.982,3.375H6.738A4.488,4.488,0,0,0,2.25,7.863V31.426a4.488,4.488,0,0,0,4.488,4.488H29.179a4.488,4.488,0,0,0,4.488-4.488V7.863a4.488,4.488,0,0,0-4.488-4.488H26.935V5.619h2.244a2.244,2.244,0,0,1,2.244,2.244V31.426a2.244,2.244,0,0,1-2.244,2.244H6.738a2.244,2.244,0,0,1-2.244-2.244V7.863A2.244,2.244,0,0,1,6.738,5.619H8.982Z" transform="translate(-2.249 -0.009)" fill="#005ea2" fill-rule="evenodd"/><path d="M21.349,2.244H14.616a1.122,1.122,0,0,0-1.122,1.122V5.61a1.122,1.122,0,0,0,1.122,1.122h6.732A1.122,1.122,0,0,0,22.471,5.61V3.366A1.122,1.122,0,0,0,21.349,2.244ZM14.616,0A3.366,3.366,0,0,0,11.25,3.366V5.61a3.366,3.366,0,0,0,3.366,3.366h6.732A3.366,3.366,0,0,0,24.715,5.61V3.366A3.366,3.366,0,0,0,21.349,0Zm9.77,16.036a1.122,1.122,0,0,1,0,1.589l-6.732,6.732a1.122,1.122,0,0,1-1.589,0L12.7,20.991A1.123,1.123,0,1,1,14.288,19.4l2.572,2.574,5.938-5.94a1.122,1.122,0,0,1,1.589,0Z" transform="translate(-2.273)" fill="#005ea2" fill-rule="evenodd"/></g></g></svg>