<svg xmlns="http://www.w3.org/2000/svg" xmlns:xlink="http://www.w3.org/1999/xlink" width="126" height="126" viewBox="0 0 126 126"><defs><linearGradient id="a" x1="0.5" y1="0.067" x2="0.5" y2="1.345" gradientUnits="objectBoundingBox"><stop offset="0" stop-color="#e1f3f8" stop-opacity="0.769"/><stop offset="1" stop-color="#73b3e7"/></linearGradient></defs><g transform="translate(-1356 -1265)"><g transform="translate(1214 944)"><g transform="translate(-13 -305)"><circle cx="63" cy="63" r="63" transform="translate(155 626)" fill="url(#a)"/><path d="M63,1A61.706,61.706,0,0,0,28.336,11.588,62.184,62.184,0,0,0,5.872,38.867a61.917,61.917,0,0,0,5.716,58.8,62.184,62.184,0,0,0,27.279,22.464,61.917,61.917,0,0,0,58.8-5.716,62.184,62.184,0,0,0,22.464-27.279,61.917,61.917,0,0,0-5.716-58.8A62.184,62.184,0,0,0,87.133,5.872,61.611,61.611,0,0,0,63,1m0-1A63,63,0,1,1,0,63,63,63,0,0,1,63,0Z" transform="translate(155 626)" fill="rgba(112,112,112,0.31)"/></g></g><path d="M32.36,32.347H42.678a8.026,8.026,0,1,0,0-4.013H32.36V12.283H42.678a8.026,8.026,0,1,0,0-4.013H32.36a4.016,4.016,0,0,0-4.013,4.013V28.334H18.03a8.026,8.026,0,1,0,0,4.013H28.347V48.4a4.016,4.016,0,0,0,4.013,4.013H42.678a8.026,8.026,0,1,0,0-4.013H32.36Zm18.058-6.019a4.013,4.013,0,1,1-4.013,4.013A4.013,4.013,0,0,1,50.419,26.328Zm0-20.065a4.013,4.013,0,1,1-4.013,4.013,4.013,4.013,0,0,1,4.013-4.013ZM10.289,34.354A4.013,4.013,0,1,1,14.3,30.341a4.013,4.013,0,0,1-4.013,4.013ZM50.419,46.392a4.013,4.013,0,1,1-4.013,4.013,4.013,4.013,0,0,1,4.013-4.013Z" transform="translate(1388.646 1297.659)" fill="#005ea2"/></g></svg>