<svg xmlns="http://www.w3.org/2000/svg" width="80" height="80" viewBox="0 0 80 80"><g transform="translate(-1509 -1391)"><g transform="translate(-286 160)"><g transform="translate(45 9)"><circle cx="40" cy="40" r="40" transform="translate(1750 1222)" fill="#e1f3f8"/><path d="M40,1A39.011,39.011,0,0,0,24.82,75.936,39.01,39.01,0,0,0,55.18,4.064,38.755,38.755,0,0,0,40,1m0-1A40,40,0,1,1,0,40,40,40,0,0,1,40,0Z" transform="translate(1750 1222)" fill="rgba(112,112,112,0.31)"/></g></g><g transform="translate(1531 1413)"><path d="M6.75,23.625V22.5H4.5v1.125A7.875,7.875,0,0,0,12.375,31.5H15.75V29.25H12.375A5.625,5.625,0,0,1,6.75,23.625Z" fill="#005ea2"/><path d="M27,12.375V13.5h2.25V12.375A7.875,7.875,0,0,0,21.375,4.5H18V6.75h3.375A5.625,5.625,0,0,1,27,12.375Z" fill="#005ea2"/><path d="M12.375,12.375H5.625A3.375,3.375,0,0,0,2.25,15.75V18H4.5V15.75a1.125,1.125,0,0,1,1.125-1.125h6.75A1.125,1.125,0,0,1,13.5,15.75V18h2.25V15.75a3.375,3.375,0,0,0-3.375-3.375Z" fill="#005ea2"/><path d="M9,11.25a4.5,4.5,0,1,0-4.5-4.5A4.5,4.5,0,0,0,9,11.25ZM9,4.5A2.25,2.25,0,1,1,6.75,6.75,2.25,2.25,0,0,1,9,4.5Z" fill="#005ea2"/><path d="M30.375,28.125h-6.75A3.375,3.375,0,0,0,20.25,31.5v2.25H22.5V31.5a1.125,1.125,0,0,1,1.125-1.125h6.75A1.125,1.125,0,0,1,31.5,31.5v2.25h2.25V31.5a3.375,3.375,0,0,0-3.375-3.375Z" fill="#005ea2"/><path d="M22.5,22.5A4.5,4.5,0,1,0,27,18,4.5,4.5,0,0,0,22.5,22.5Zm6.75,0A2.25,2.25,0,1,1,27,20.25,2.25,2.25,0,0,1,29.25,22.5Z" fill="#005ea2"/></g></g></svg>