<?xml version="1.0" standalone="no"?>
<!DOCTYPE svg PUBLIC "-//W3C//DTD SVG 20010904//EN"
 "http://www.w3.org/TR/2001/REC-SVG-20010904/DTD/svg10.dtd">
<svg version="1.0" xmlns="http://www.w3.org/2000/svg"
 width="260.000000pt" height="260.000000pt" viewBox="0 0 260.000000 260.000000"
 preserveAspectRatio="xMidYMid meet">
<metadata>
Created by potrace 1.14, written by Peter Selinger 2001-2017
</metadata>
<g transform="translate(0.000000,260.000000) scale(0.100000,-0.100000)"
fill="#000000" stroke="none">
<path d="M309 2050 c-1 -9 -26 -128 -44 -211 -2 -9 -6 -33 -9 -53 -3 -20 -19
-102 -35 -183 -17 -82 -32 -161 -35 -178 -3 -16 -19 -99 -36 -184 -17 -84 -33
-168 -36 -185 -3 -17 -9 -49 -14 -71 -5 -22 -12 -56 -15 -75 -3 -19 -17 -91
-30 -160 -13 -69 -26 -136 -29 -150 -2 -14 -6 -31 -8 -39 -2 -12 26 -14 165
-15 104 -1 171 3 176 9 4 5 27 111 51 235 23 124 50 263 59 310 l17 85 219 0
220 1 11 34 c7 19 15 56 18 82 4 26 9 53 11 60 6 18 14 64 22 119 l6 47 -199
0 c-110 0 -209 1 -220 1 -21 1 -21 2 -7 69 14 67 21 102 22 112 1 3 105 6 232
5 127 0 233 3 235 7 9 14 64 322 58 327 -7 7 -804 9 -805 1z"/>
<path d="M1561 2046 c-27 -33 -528 -836 -522 -836 4 0 11 4 17 9 52 48 376
182 520 216 120 28 275 55 343 59 47 3 86 8 88 9 2 2 -3 39 -12 83 -8 43 -17
93 -20 109 -2 17 -7 41 -10 55 -3 14 -14 72 -25 130 -11 58 -22 118 -26 135
-3 16 -8 32 -10 35 -11 10 -334 7 -343 -4z"/>
<path d="M2246 2050 c-2 -3 -3 -130 -3 -282 l0 -278 36 -6 c70 -11 204 -56
252 -85 42 -25 49 -26 50 -11 6 138 2 662 -6 663 -29 5 -327 4 -329 -1z"/>
<path d="M2246 1342 c-2 -4 -3 -184 -3 -399 0 -350 2 -393 16 -394 9 -1 83 -2
165 -3 115 -1 150 2 154 12 2 8 5 175 6 372 l1 359 -55 17 c-30 9 -63 18 -75
20 -11 2 -38 5 -60 9 -72 10 -145 13 -149 7z"/>
<path d="M1915 1310 c-504 -107 -941 -429 -971 -716 -3 -36 -1 -42 17 -47 35
-9 57 6 91 60 18 28 62 96 97 151 l63 100 289 0 c212 0 289 -3 290 -11 0 -7 2
-19 4 -27 1 -8 8 -42 14 -75 21 -116 31 -166 37 -185 3 -13 30 -15 168 -15 91
1 168 4 171 7 3 3 -1 43 -10 89 -21 109 -55 287 -61 319 -2 14 -9 48 -14 75
-12 58 -12 59 -36 193 -21 118 -9 111 -149 82z"/>
</g>
</svg>
