<svg xmlns="http://www.w3.org/2000/svg" xmlns:xlink="http://www.w3.org/1999/xlink" width="126" height="126" viewBox="0 0 126 126"><defs><linearGradient id="a" x1="0.5" y1="0.067" x2="0.5" y2="1.345" gradientUnits="objectBoundingBox"><stop offset="0" stop-color="#e1f3f8" stop-opacity="0.769"/><stop offset="1" stop-color="#73b3e7"/></linearGradient></defs><g transform="translate(-1439 -1220)"><g transform="translate(1297 899)"><g transform="translate(-13 -305)"><circle cx="63" cy="63" r="63" transform="translate(155 626)" fill="url(#a)"/><path d="M63,1A61.706,61.706,0,0,0,28.336,11.588,62.184,62.184,0,0,0,5.872,38.867a61.917,61.917,0,0,0,5.716,58.8,62.184,62.184,0,0,0,27.279,22.464,61.917,61.917,0,0,0,58.8-5.716,62.184,62.184,0,0,0,22.464-27.279,61.917,61.917,0,0,0-5.716-58.8A62.184,62.184,0,0,0,87.133,5.872,61.611,61.611,0,0,0,63,1m0-1A63,63,0,1,1,0,63,63,63,0,0,1,63,0Z" transform="translate(155 626)" fill="rgba(112,112,112,0.31)"/></g></g><g transform="translate(-301.479 113.249)"><path d="M6.75,18H19.277v4.176H6.75Z" transform="translate(1775.851 1151.324)" fill="#005ea2"/><path d="M6.75,13.5H27.628v4.176H6.75Z" transform="translate(1775.851 1147.472)" fill="#005ea2"/><path d="M6.75,9H27.628v4.176H6.75Z" transform="translate(1775.851 1143.621)" fill="#005ea2"/><path d="M27.3,50.433H6.426V8.676H56.534V29.554H60.71V8.676A4.176,4.176,0,0,0,56.534,4.5H6.426A4.176,4.176,0,0,0,2.25,8.676V50.433a4.176,4.176,0,0,0,4.176,4.176H27.3Z" transform="translate(1772 1139.77)" fill="#005ea2"/><path d="M28.6,35.134l-5.408-5.408L20.25,32.67,28.6,41.021l16.7-16.7-2.943-2.943Z" transform="translate(1787.406 1154.212)" fill="#005ea2"/></g></g></svg>