<svg xmlns="http://www.w3.org/2000/svg" width="80" height="80" viewBox="0 0 80 80"><g transform="translate(-151 -854)"><circle cx="40" cy="40" r="40" transform="translate(151 854)" fill="#e1f3f8"/><path d="M40,1A39.011,39.011,0,0,0,24.82,75.936,39.01,39.01,0,0,0,55.18,4.064,38.755,38.755,0,0,0,40,1m0-1A40,40,0,1,1,0,40,40,40,0,0,1,40,0Z" transform="translate(151 854)" fill="rgba(112,112,112,0.31)"/><path d="M27.872,35.106H9.1A2.349,2.349,0,0,1,6.75,32.76V4.6A2.349,2.349,0,0,1,9.1,2.25H27.872A2.349,2.349,0,0,1,30.219,4.6V24.1l-5.867-2.934L18.484,24.1V4.6H9.1V32.76H27.872V28.066h2.347V32.76A2.35,2.35,0,0,1,27.872,35.106Zm-3.52-16.567,3.52,1.761V4.6H20.831V20.3Z" transform="translate(172.638 875.201)" fill="#005ea2"/></g></svg>