<svg xmlns="http://www.w3.org/2000/svg" xmlns:xlink="http://www.w3.org/1999/xlink" width="126" height="126" viewBox="0 0 126 126"><defs><linearGradient id="a" x1="0.5" y1="0.067" x2="0.5" y2="1.345" gradientUnits="objectBoundingBox"><stop offset="0" stop-color="#e1f3f8" stop-opacity="0.769"/><stop offset="1" stop-color="#73b3e7"/></linearGradient></defs><g transform="translate(-142 -321)"><g transform="translate(-13 -305)"><circle cx="63" cy="63" r="63" transform="translate(155 626)" fill="url(#a)"/><path d="M63,1A61.706,61.706,0,0,0,28.336,11.588,62.184,62.184,0,0,0,5.872,38.867a61.917,61.917,0,0,0,5.716,58.8,62.184,62.184,0,0,0,27.279,22.464,61.917,61.917,0,0,0,58.8-5.716,62.184,62.184,0,0,0,22.464-27.279,61.917,61.917,0,0,0-5.716-58.8A62.184,62.184,0,0,0,87.133,5.872,61.611,61.611,0,0,0,63,1m0-1A63,63,0,1,1,0,63,63,63,0,0,1,63,0Z" transform="translate(155 626)" fill="rgba(112,112,112,0.31)"/></g><g transform="translate(173.906 354.731)"><path d="M40.839,29.586,26.417,37.7,12,29.586V21.015L7.875,18.726V32L26.417,42.425,44.96,32V18.724l-4.121,2.289v8.571Z" transform="translate(4.676 12.878)" fill="#005ea2"/><path d="M31.094,3.233,2.25,18.188v3.571L31.094,37.783,55.817,24.048v11.38h4.121V18.188ZM51.7,21.625l-4.121,2.289L31.094,33.071,14.612,23.914l-4.121-2.289L7.636,20.039,31.094,7.874,54.551,20.037Z" transform="translate(0 0)" fill="#005ea2"/></g></g></svg>