<svg xmlns="http://www.w3.org/2000/svg" width="80" height="80" viewBox="0 0 80 80"><g transform="translate(-151 -1188)"><g transform="translate(151 1187.969)"><circle cx="40" cy="40" r="40" transform="translate(0 0.031)" fill="#e1f3f8"/><path d="M40,1A39.011,39.011,0,0,0,24.82,75.936,39.01,39.01,0,0,0,55.18,4.064,38.755,38.755,0,0,0,40,1m0-1A40,40,0,1,1,0,40,40,40,0,0,1,40,0Z" transform="translate(0 0.031)" fill="rgba(112,112,112,0.31)"/></g><g transform="translate(181.104 1205.633)"><path d="M11.813,17.112h4.814c0-2.848,1.669-5.047,4.96-5.047,2.5,0,4.788,1.251,4.788,4.259,0,2.316-1.365,3.381-3.519,5-2.454,1.783-4.4,3.866-4.259,7.247l.026,1.689h4.767v-1.3c0-2.618,1-3.381,3.682-5.42,2.22-1.689,4.537-3.562,4.537-7.5,0-5.511-4.653-8.172-9.747-8.172-4.836,0-10.161,2.36-10.044,9.237Zm5.7,20.116a3.434,3.434,0,0,0,3.682,3.381,3.42,3.42,0,1,0,0-6.809,3.429,3.429,0,0,0-3.679,3.428Z" transform="translate(-11.814 -1.875)" fill="#005ea2"/></g></g></svg>