<svg xmlns="http://www.w3.org/2000/svg" xmlns:xlink="http://www.w3.org/1999/xlink" width="126" height="126" viewBox="0 0 126 126"><defs><linearGradient id="a" x1="0.5" y1="0.067" x2="0.5" y2="1.345" gradientUnits="objectBoundingBox"><stop offset="0" stop-color="#e1f3f8" stop-opacity="0.769"/><stop offset="1" stop-color="#73b3e7"/></linearGradient></defs><g transform="translate(-1681 -1381)"><g transform="translate(1539 1060)"><g transform="translate(-13 -305)"><circle cx="63" cy="63" r="63" transform="translate(155 626)" fill="url(#a)"/><path d="M63,1A61.706,61.706,0,0,0,28.336,11.588,62.184,62.184,0,0,0,5.872,38.867a61.917,61.917,0,0,0,5.716,58.8,62.184,62.184,0,0,0,27.279,22.464,61.917,61.917,0,0,0,58.8-5.716,62.184,62.184,0,0,0,22.464-27.279,61.917,61.917,0,0,0-5.716-58.8A62.184,62.184,0,0,0,87.133,5.872,61.611,61.611,0,0,0,63,1m0-1A63,63,0,1,1,0,63,63,63,0,0,1,63,0Z" transform="translate(155 626)" fill="rgba(112,112,112,0.31)"/></g></g><path d="M23.463,2.25A20.582,20.582,0,0,0,12.122,5.61L25.563,19.052a4.411,4.411,0,0,1,.42,6.3,4.411,4.411,0,0,1-6.3-.42L5.823,11.491a20.666,20.666,0,0,0-3.571,11.97A21.3,21.3,0,0,0,23.463,44.673a22.893,22.893,0,0,0,5.461-.629L43,58.116A10.543,10.543,0,1,0,57.907,43.206L43.834,29.133a22.893,22.893,0,0,0,.629-5.461,21,21,0,0,0-21-21.422Zm16.8,21.211a15.982,15.982,0,0,1-.629,4.411l-.629,2.311,1.68,1.68L54.759,45.937a6.049,6.049,0,0,1,1.889,4.411,5.713,5.713,0,0,1-1.891,4.408,6.09,6.09,0,0,1-8.821,0L31.864,40.683,30.184,39l-2.311.629a15.982,15.982,0,0,1-4.411.629,17.369,17.369,0,0,1-11.972-4.83,16.025,16.025,0,0,1-5.037-11.97,17.494,17.494,0,0,1,.629-4.621l9.241,9.241a8.694,8.694,0,0,0,12.392.42,8.694,8.694,0,0,0-.42-12.392L19.053,6.871a13.546,13.546,0,0,1,4.2-.629,17.369,17.369,0,0,1,11.972,4.83,17.831,17.831,0,0,1,5.041,12.392Z" transform="translate(1712.378 1412.273)" fill="#005ea2"/></g></svg>