<svg xmlns="http://www.w3.org/2000/svg" width="80" height="80" viewBox="0 0 80 80"><g transform="translate(-713 -1188)"><g transform="translate(713 1187.969)"><circle cx="40" cy="40" r="40" transform="translate(0 0.031)" fill="#e1f3f8"/><path d="M40,1A39.011,39.011,0,0,0,24.82,75.936,39.01,39.01,0,0,0,55.18,4.064,38.755,38.755,0,0,0,40,1m0-1A40,40,0,1,1,0,40,40,40,0,0,1,40,0Z" transform="translate(0 0.031)" fill="rgba(112,112,112,0.31)"/></g><path d="M23.162,28.763H4.451a2.2,2.2,0,0,1-2.2-2.2V8.951a2.2,2.2,0,0,1,2.2-2.2H23.162a2.2,2.2,0,0,1,2.2,2.2v4.468L31.33,9.16a1.1,1.1,0,0,1,1.739.892V25.461a1.1,1.1,0,0,1-1.74.891l-5.965-4.259v4.468A2.2,2.2,0,0,1,23.162,28.763ZM4.451,8.951v17.61H23.162v-6.6a1.1,1.1,0,0,1,1.74-.891l5.965,4.259V12.187L24.9,16.447a1.1,1.1,0,0,1-1.739-.891v-6.6Z" transform="translate(735.342 1210.243)" fill="#005ea2"/></g></svg>